<?xml version="1.0" encoding="UTF-8"?>
<svg width="11px" height="12px" viewBox="0 0 11 12" version="1.1" xmlns="http://www.w3.org/2000/svg" xmlns:xlink="http://www.w3.org/1999/xlink">
    <!-- Generator: Sketch 63.1 (92452) - https://sketch.com -->
    <title>Arrow Up</title>
    <desc>Created with Sketch.</desc>
    <g id="Member-Portal" stroke="none" stroke-width="1" fill="none" fill-rule="evenodd">
        <g id="Member-Portal-Mobile-Nav---Closed" transform="translate(-20.000000, -807.000000)" fill="#42318C" fill-rule="nonzero">
            <path d="M25.5781117,818.249998 C25.7334305,818.249998 25.859361,818.124068 25.859361,817.968749 L25.859361,809.966464 L29.495209,813.602312 C29.6050491,813.712129 29.7831188,813.712129 29.8929589,813.602312 L30.3570157,813.138278 C30.466833,813.028438 30.466833,812.850368 30.3570157,812.740505 L25.4488624,807.832398 C25.3390223,807.72258 25.1609527,807.72258 25.0510896,807.832398 L20.1429821,812.740528 C20.033142,812.850368 20.033142,813.028438 20.1429821,813.138278 L20.607039,813.602312 C20.7168562,813.712129 20.8949258,813.712129 21.0047889,813.602312 L24.6406139,809.966464 L24.6406139,817.968749 C24.6406139,818.124068 24.7665444,818.249998 24.9218633,818.249998 L25.5781117,818.249998 Z" id="Arrow-Up"></path>
        </g>
    </g>
</svg>